# xmcd
#
# Track frame offsets: 
#        150
#        10725
#        22455
#        33985
#        45020
#        56452
#        67685
#        78785
#        89679
#        102654
#        115770
#        127252
#        138987
#        153180
#        164525
#        175400
#        184680
#        193020
#        204297
#        217285
#        226237
#        235922
#        247712
#        257105
#        267702
#        277860
#        288815
#        297587
#        307225
#
# Disc length: 4265 seconds
#
# Revision: 0
# Processed by: cddbd v1.5.1PL0 Copyright (c) Steve Scherf et al.
# Submitted via: ExactAudioCopy v0.95a4
#
DISCID=a510a71d
DTITLE=Various Artist - The 'D' Singles Volume 2 - Disc 1
DYEAR=1900
DGENRE=Country
TTITLE0=Utah Carl: Because I Trusted You
TTITLE1=Utah Carl: I Still Miss You
TTITLE2=Utah Carl: Counterfeit Heart
TTITLE3=Merl Lindsay:Meanwhile
TTITLE4=Merl Lindsay: I'm Tired Of Writing Letters
TTITLE5=Ted Doyle: We've Got A Lot To Be Thankful For
TTITLE6=Ted Doyle: I'll Be Thinking Of You Dear
TTITLE7=Doug Bragg: Don't Do That Again
TTITLE8=Doug Bragg: One More Mistake
TTITLE9=Doug Bragg: You'll Have To Give (Just A Little)
TTITLE10=Billy Martin: If You Don't Love Me (Let Me Go)
TTITLE11=Billy Martin: Tears I Couldn't Hide
TTITLE12=Billy Martin: Angel
TTITLE13=Eddie Burke: Too Many Tears
TTITLE14=Eddie Burke: Rock Mop
TTITLE15=Rufus Thibodeaux: Sauce Piquant
TTITLE16=Rufus Thibedeaux: Louisiana Festival
TTITLE17=Ward Allen: Frisco Waltz
TTITLE18=Ward Allen: Two Step Polka
TTITLE19=Dee Mullin: I've Really Got A Right To Cry
TTITLE20=Dee Mullin: The World's A Lie
TTITLE21=Homer Lee Sewell: Whisper Your Name
TTITLE22=Homer Lee Sewell: She's Mad At Me
TTITLE23=Gaston Ponce Castellanos: Falso-Querer
TTITLE24=Gaston Ponce Castellanos: Paloma-Mentirosa
TTITLE25=Glenn Barber: Most Beautiful
TTITLE26=Glenn Barber: Your Heart Don't Love
TTITLE27=Jim Alexander: Ramble
TTITLE28=Jim Alexander: Who Knows
EXTD=
EXTT0=
EXTT1=
EXTT2=
EXTT3=
EXTT4=
EXTT5=
EXTT6=
EXTT7=
EXTT8=
EXTT9=
EXTT10=
EXTT11=
EXTT12=
EXTT13=
EXTT14=
EXTT15=
EXTT16=
EXTT17=
EXTT18=
EXTT19=
EXTT20=
EXTT21=
EXTT22=
EXTT23=
EXTT24=
EXTT25=
EXTT26=
EXTT27=
EXTT28=
PLAYORDER=
